<?xml version="1.0" encoding="utf-8"?><svg viewBox="0 0 156 48" xmlns="http://www.w3.org/2000/svg" xmlns:xlink="http://www.w3.org/1999/xlink"><style>:root>svg{display:none}:root>svg:target{display:block}</style><svg fill="none" viewBox="0 0 22 16" id="en" xmlns="http://www.w3.org/2000/svg"><path fill="#EEF3F8" d="M.334 0h21.333v14.667H.334z"/><path fill="#41479B" d="M.334 0h12v9.333h-12z"/><path fill="#DC251C" d="M12.334 0h9.333v1.333h-9.333zM12.334 2.667h9.333V4h-9.333zM12.334 5.333h9.333v1.333h-9.333zM12.334 8h9.333v1.333h-9.333zM.334 10.667h21.333V12H.334zM.334 13.333h21.333v1.333H.334z"/><path fill="#C5D0EC" d="M1.667 1.334H3v1.333H1.667zM4.334 1.334h1.333v1.333H4.334zM7.001 1.334h1.333v1.333H7.001zM9.667 1.334H11v1.333H9.667zM1.667 4H3v1.333H1.667zM4.334 4h1.333v1.333H4.334zM7.001 4h1.333v1.333H7.001zM3.001 5.334h1.333v1.333H3.001zM5.667 5.334H7v1.333H5.667zM8.334 5.334h1.333v1.333H8.334zM3.001 2.667h1.333V4H3.001zM5.667 2.667H7V4H5.667zM8.334 2.667h1.333V4H8.334zM9.667 4H11v1.333H9.667zM1.667 6.667H3V8H1.667zM4.334 6.667h1.333V8H4.334zM7.001 6.667h1.333V8H7.001zM9.667 6.667H11V8H9.667z"/></svg><svg fill="none" viewBox="0 0 156 36" id="laravel-logo" xmlns="http://www.w3.org/2000/svg"><path fill-rule="evenodd" clip-rule="evenodd" d="M34.026 8.462a.548.548 0 0 1 .019.141v7.446a.543.543 0 0 1-.273.471l-6.25 3.598v7.132a.544.544 0 0 1-.27.47l-13.046 7.51c-.03.017-.062.028-.095.04-.012.003-.024.01-.036.014a.546.546 0 0 1-.279 0c-.014-.004-.028-.012-.042-.017-.03-.011-.061-.02-.09-.037L.622 27.72a.543.543 0 0 1-.273-.47V4.912c0-.048.007-.096.02-.142.003-.016.013-.03.018-.046.01-.028.02-.057.035-.084.01-.017.025-.032.037-.048.016-.022.03-.044.048-.063.016-.016.036-.027.054-.04.02-.017.037-.035.06-.047L7.143.687a.544.544 0 0 1 .543 0l6.521 3.755h.001c.022.013.04.03.06.046.018.013.037.025.053.04.019.02.033.042.049.064.011.016.027.03.037.048.015.027.024.056.035.084.005.016.015.03.019.047a.557.557 0 0 1 .019.141v13.952l5.434-3.13V8.604a.55.55 0 0 1 .019-.141c.005-.017.014-.03.019-.047.01-.028.02-.057.035-.084.01-.017.025-.032.037-.048.016-.022.03-.044.049-.063.015-.016.035-.027.053-.04.02-.017.038-.035.06-.048l6.522-3.754a.543.543 0 0 1 .543 0l6.522 3.754c.023.014.04.031.06.047.018.013.037.025.053.04.019.02.032.042.049.064.012.016.027.03.036.048.016.027.025.056.036.084.006.016.015.03.019.047Zm-1.069 7.273V9.543l-2.282 1.314-3.152 1.815v6.192l5.435-3.13Zm-6.52 11.2V20.74l-3.102 1.77-8.856 5.055v6.254l11.957-6.884Zm-25-21.083v21.083l11.955 6.883v-6.252L7.146 24.03l-.002-.002h-.003c-.02-.013-.038-.03-.058-.046-.017-.013-.037-.024-.052-.039l-.001-.002c-.018-.017-.03-.038-.045-.057-.013-.018-.03-.034-.04-.053l-.001-.002c-.012-.02-.02-.045-.029-.068-.008-.02-.02-.04-.025-.06-.007-.027-.009-.055-.011-.081-.003-.02-.008-.04-.008-.061V8.98L3.718 7.165 1.436 5.852Zm5.978-4.067L1.98 4.912 7.413 8.04l5.433-3.128-5.433-3.127h.002Zm2.826 19.52 3.152-1.815V5.852L11.11 7.166 7.958 8.981V22.62l2.283-1.315ZM26.98 5.474l-5.433 3.128 5.433 3.128 5.432-3.128-5.432-3.127Zm-.544 7.197-3.153-1.815-2.282-1.314v6.192l3.152 1.814 2.283 1.315v-6.192ZM13.935 26.625l7.969-4.55 3.983-2.273-5.429-3.125-6.25 3.599-5.697 3.28 5.424 3.07ZM56.449 5.402v21.056h7.618v3.633H52.392V5.401h4.057Zm21.936 10.475v-2.222h3.844v16.436h-3.843V27.87c-.518.823-1.252 1.47-2.205 1.94-.952.47-1.91.704-2.874.704-1.247 0-2.387-.228-3.422-.687a8.002 8.002 0 0 1-2.663-1.887 8.77 8.77 0 0 1-1.727-2.75 8.879 8.879 0 0 1-.618-3.317c0-1.15.206-2.25.618-3.298a8.734 8.734 0 0 1 1.727-2.768 8.009 8.009 0 0 1 2.663-1.887c1.035-.458 2.175-.687 3.422-.687.964 0 1.922.235 2.874.706.952.47 1.686 1.116 2.204 1.94Zm-.353 8.006a5.75 5.75 0 0 0 .354-2.01c0-.706-.119-1.376-.354-2.01a5.1 5.1 0 0 0-.986-1.658 4.781 4.781 0 0 0-1.535-1.13 4.63 4.63 0 0 0-1.992-.422c-.73 0-1.389.141-1.976.423a4.834 4.834 0 0 0-1.517 1.13 4.848 4.848 0 0 0-.968 1.656 5.993 5.993 0 0 0-.337 2.01c0 .706.112 1.376.336 2.01.223.636.546 1.188.97 1.659.426.472.942.856 1.517 1.129.586.282 1.245.423 1.974.423.73 0 1.393-.14 1.993-.423a4.772 4.772 0 0 0 1.535-1.13 5.094 5.094 0 0 0 .986-1.657Zm7.23 6.207V13.655h10.44v3.784h-6.596v12.653h-3.843v-.002Zm24.372-14.213v-2.222h3.845v16.436h-3.845V27.87c-.517.823-1.252 1.47-2.205 1.94-.952.47-1.909.704-2.874.704-1.246 0-2.386-.228-3.421-.687a8 8 0 0 1-2.663-1.887 8.77 8.77 0 0 1-1.728-2.75 8.877 8.877 0 0 1-.617-3.317c0-1.15.205-2.25.617-3.298a8.734 8.734 0 0 1 1.727-2.768 8.01 8.01 0 0 1 2.664-1.887c1.035-.458 2.175-.687 3.421-.687.964 0 1.922.235 2.874.706.953.47 1.688 1.116 2.205 1.94Zm-.353 8.006a5.743 5.743 0 0 0 .353-2.01 5.76 5.76 0 0 0-.353-2.01 5.098 5.098 0 0 0-.986-1.658 4.787 4.787 0 0 0-1.535-1.13 4.638 4.638 0 0 0-1.993-.422c-.729 0-1.388.141-1.975.423a4.832 4.832 0 0 0-1.517 1.13 4.847 4.847 0 0 0-.969 1.656 5.988 5.988 0 0 0-.336 2.01c0 .706.111 1.376.336 2.01.223.636.546 1.188.969 1.659.426.472.942.856 1.517 1.129.587.282 1.246.423 1.975.423.728 0 1.393-.14 1.993-.423a4.781 4.781 0 0 0 1.535-1.13 5.092 5.092 0 0 0 .986-1.657Zm19.61-10.228h3.893l-6.308 16.436h-4.833l-6.31-16.436h3.894l4.832 12.586 4.832-12.586Zm12.279-.423c5.234 0 8.804 4.64 8.133 10.07H136.55c0 1.417 1.431 4.158 4.831 4.158 2.923 0 4.883-2.572 4.884-2.573l2.598 2.01c-2.323 2.478-4.224 3.618-7.202 3.618-5.32 0-8.926-3.366-8.926-8.642 0-4.772 3.728-8.64 8.435-8.64Zm-4.61 7.212h9.213c-.029-.316-.528-4.159-4.634-4.159-4.107 0-4.55 3.843-4.579 4.16Zm15.246 9.646V5.402h3.845V30.09h-3.845Z" fill="#fff"/></svg><svg fill="none" viewBox="0 0 114 48" id="sisi-dev-logo" xmlns="http://www.w3.org/2000/svg"><path d="M25.672 17.975c-.169.421-.38.97-.632 1.644a49.71 49.71 0 0 0-.506 1.707c-.169.084-.316.02-.443-.19.127-.253.19-.569.19-.948 0-.759-.38-1.476-1.138-2.15-.717-.674-1.876-1.012-3.477-1.012-1.686 0-3.056.506-4.11 1.518-1.054.97-1.58 2.276-1.58 3.92 0 1.264.294 2.444.884 3.54a22.048 22.048 0 0 0 1.96 3.035c.548.717.991 1.328 1.328 1.833.38.464.675.907.885 1.328.211.38.359.759.443 1.138.084.337.126.759.126 1.265 0 .885-.21 1.749-.632 2.592a8.485 8.485 0 0 1-1.58 2.34 13.66 13.66 0 0 1-2.15 1.96c-.759.547-1.518.99-2.276 1.327-1.897.843-4.004 1.264-6.323 1.264-.97 0-1.939-.084-2.908-.253a10.35 10.35 0 0 1-2.592-.822 8.61 8.61 0 0 0-.57-.316c-.168-.126-.273-.252-.315-.379.168-.717.358-1.517.569-2.402.253-.928.463-1.686.632-2.276 0-.085.063-.127.19-.127.126 0 .19.105.19.316a3.58 3.58 0 0 0-.19 1.138c0 1.18.484 2.234 1.454 3.161.97.886 2.466 1.328 4.489 1.328.758 0 1.517-.063 2.276-.19a9.9 9.9 0 0 0 2.15-.695 9.14 9.14 0 0 0 3.287-2.466c.927-1.096 1.391-2.381 1.391-3.856 0-.717-.169-1.434-.506-2.15-.337-.759-.99-1.75-1.96-2.972-.843-1.096-1.496-2.065-1.96-2.908-.421-.843-.632-1.812-.632-2.908 0-1.096.232-2.192.696-3.288a12.638 12.638 0 0 1 1.833-2.908c.253-.295.59-.632 1.012-1.012.463-.421.99-.8 1.58-1.138a12.683 12.683 0 0 1 2.15-.885c.843-.253 1.77-.38 2.782-.38.674 0 1.327.106 1.96.317.632.168 1.2.527 1.707 1.075.21.295.316.59.316.885ZM35.213 20.946c0 .422-.19.864-.57 1.328-.337.464-.8.695-1.39.695a1.22 1.22 0 0 1-.633-.19.786.786 0 0 1-.252-.568c0-.295.147-.717.442-1.265.337-.59.864-.885 1.58-.885a.84.84 0 0 1 .507.19c.21.126.316.358.316.695Zm8.282 6.196c0 .169-.021.4-.063.696-.042.253-.169.61-.38 1.075-.168.421-.484.969-.948 1.643-.421.675-1.011 1.518-1.77 2.53.042.674.084 1.264.126 1.77.085.505.127 1.18.127 2.023 0 .674-.106 1.475-.316 2.402a7.863 7.863 0 0 1-1.012 2.656c-.506.8-1.222 1.475-2.15 2.023-.885.59-2.065.885-3.54.885-.97 0-1.728-.295-2.276-.885-.548-.59-.906-1.18-1.075-1.77-.843.505-1.812.948-2.908 1.327-1.054.38-2.255.57-3.604.57-.59 0-1.054-.148-1.391-.443-.337-.253-.506-.654-.506-1.201 0-1.012.611-2.593 1.834-4.742 1.264-2.15 2.824-4.616 4.678-7.398.085-.168.359-.295.822-.379.464-.126.822-.19 1.075-.19s.38.085.38.253c0 .169-.127.464-.38.886-.253.379-.695 1.053-1.328 2.023-.548.843-1.117 1.749-1.707 2.718a99.051 99.051 0 0 0-1.517 2.656c-.422.843-.78 1.601-1.075 2.276-.253.632-.38 1.117-.38 1.454 0 .38.085.695.254.948.168.253.526.38 1.074.38.675 0 1.391-.106 2.15-.317.759-.252 1.56-.674 2.403-1.264-.043-.21-.064-.527-.064-.948 0-.633.148-1.286.443-1.96a24.677 24.677 0 0 1 1.96-2.592c.8-.928 1.475-1.686 2.023-2.276.042-.043.105-.064.19-.064.084 0 .147.021.19.064.084 0 .126.042.126.126 0 .084-.084.19-.253.316-1.012.885-1.791 1.834-2.34 2.845-.505.97-.758 2.129-.758 3.477a20.42 20.42 0 0 0 1.517-1.2 69.198 69.198 0 0 0 1.897-1.708c.674-.59 1.307-1.18 1.897-1.77a25.514 25.514 0 0 0 1.517-1.518v-.758c0-1.012.105-1.981.316-2.909.211-.969.485-1.79.822-2.465.38-.717.822-1.286 1.328-1.707.506-.422 1.054-.633 1.644-.633.632 0 .948.359.948 1.075Zm-1.011.822c0-.8-.232-1.201-.696-1.201-.38 0-.674.168-.885.506-.21.295-.38.674-.506 1.138-.126.421-.21.864-.253 1.328v1.959c.042.338.084.633.127.886.843-1.096 1.412-1.981 1.707-2.656.337-.674.505-1.328.505-1.96ZM38.5 37.132c0-.337-.02-.654-.063-.949v-1.011a123.522 123.522 0 0 1-3.287 3.161 39.684 39.684 0 0 1-3.541 3.035c.169.97.506 1.707 1.011 2.213.549.505 1.18.758 1.897.758.506 0 .99-.105 1.454-.316.506-.21.928-.59 1.265-1.138.38-.548.674-1.285.885-2.213.253-.927.38-2.107.38-3.54ZM56.657 21.262c0 .506-.232 1.012-.696 1.518-.421.506-.906.758-1.454.758-.506 0-.759-.252-.759-.758 0-.548.19-1.075.57-1.58.42-.507.927-.76 1.517-.76.548 0 .822.274.822.822Zm2.845 14.1a28.73 28.73 0 0 1-3.478 3.73c-1.306 1.18-2.508 2.128-3.604 2.845-.842.548-1.706.97-2.592 1.264-.885.295-1.686.443-2.402.443-.253 0-.548-.021-.885-.063a2.526 2.526 0 0 1-.949-.317 3.26 3.26 0 0 1-.695-.632c-.169-.295-.253-.674-.253-1.138 0-.548.21-1.285.632-2.213.422-.97.906-1.96 1.454-2.971.59-1.012 1.16-1.981 1.707-2.909a43.686 43.686 0 0 1 1.391-2.086c.211-.337.57-.611 1.075-.822.548-.253.906-.38 1.075-.38.21 0 .316.064.316.19 0 .085-.042.211-.126.38a.802.802 0 0 1-.19.38 67.872 67.872 0 0 0-1.707 2.781 66.445 66.445 0 0 0-1.517 2.972 25.776 25.776 0 0 0-1.139 2.592c-.252.8-.379 1.433-.379 1.896 0 .506.127.886.38 1.139.295.21.674.316 1.138.316.843 0 1.77-.274 2.781-.822a22.362 22.362 0 0 0 2.972-2.087 26.83 26.83 0 0 0 2.782-2.529c.843-.885 1.496-1.643 1.96-2.276.21-.21.316-.253.316-.126.042.084.02.232-.063.442ZM62.97 40.862c0 .21-.084.506-.253.885-.168.337-.4.674-.695 1.012a4.404 4.404 0 0 1-.885.885c-.338.21-.675.316-1.012.316-.295 0-.569-.084-.822-.253-.21-.169-.316-.422-.316-.759 0-.843.274-1.58.822-2.212.59-.633 1.243-.949 1.96-.949.21 0 .464.084.759.253.295.127.442.4.442.822ZM110.836 1.6c0 .253-.127.506-.38.758-.253.253-.421.612-.505 1.075-.085.295-.232.443-.443.443-.126 0-.253-.021-.379-.063a2.82 2.82 0 0 0-.506-.253c-.169-.085-.401-.148-.696-.19-.253-.084-.632-.126-1.138-.126-.716 0-1.433.105-2.149.316a6.23 6.23 0 0 0-1.96.822c-1.18.758-2.466 1.833-3.857 3.224a35.776 35.776 0 0 0-3.73 4.552c-2.824 4.046-5.311 7.84-7.46 11.38-2.108 3.499-3.878 6.639-5.311 9.42-1.434 2.783-2.508 5.164-3.225 7.145-.716 1.94-1.075 3.372-1.075 4.3 0 .716.148 1.306.443 1.77.337.463.864.695 1.58.695 1.139 0 2.213-.358 3.225-1.075a15.824 15.824 0 0 0 2.972-2.655 24.978 24.978 0 0 0 2.528-3.604 54.101 54.101 0 0 0 1.96-3.667c.085-.168.211-.232.38-.19.21.043.21.211 0 .506a48.615 48.615 0 0 1-2.466 4.363c-.843 1.349-1.75 2.529-2.719 3.54-.927 1.054-1.917 1.876-2.971 2.466-1.012.59-2.023.885-3.035.885-1.138 0-1.98-.316-2.529-.948-.548-.59-.822-1.37-.822-2.34 0-1.011.19-2.086.57-3.224.42-1.18 1.053-2.613 1.896-4.3a95.206 95.206 0 0 1-3.098 3.605c-.885.97-1.665 1.728-2.34 2.276-.674.548-1.264.927-1.77 1.138-.463.253-.885.38-1.264.38-.59 0-.99-.148-1.201-.443-.211-.338-.317-.76-.317-1.265 0-.38.106-.864.317-1.454.21-.632.505-1.244.885-1.834 1.56-2.529 3.287-4.594 5.184-6.195 1.939-1.602 4.32-2.656 7.144-3.162 2.024-3.54 3.963-6.723 5.817-9.547a101.413 101.413 0 0 1 6.07-8.282c1.812-2.276 3.603-4.278 5.374-6.006 1.812-1.728 3.667-3.035 5.563-3.92 1.433-.675 2.677-1.012 3.731-1.012.505 0 .906.064 1.201.19.337.126.506.295.506.506ZM82.069 30.62c-1.602.042-2.845.358-3.73.948a9.647 9.647 0 0 0-2.277 2.086c-1.601 1.981-2.74 3.688-3.414 5.121-.674 1.392-1.011 2.424-1.011 3.099 0 .21.084.358.253.442.168.084.295.127.379.127.295 0 .822-.317 1.58-.949.801-.632 1.665-1.475 2.593-2.529.97-1.096 1.96-2.36 2.971-3.793a30.564 30.564 0 0 0 2.656-4.552Z" fill="#000"/><path d="M103.887 36.12a30.533 30.533 0 0 1-2.592 2.782 24.823 24.823 0 0 1-3.225 2.592 19.614 19.614 0 0 1-3.603 1.897 10.277 10.277 0 0 1-3.668.695c-1.98 0-2.971-.885-2.971-2.655 0-1.18.295-2.445.885-3.793a16.072 16.072 0 0 1 2.403-3.794c.97-1.18 2.023-2.15 3.16-2.908 1.181-.801 2.298-1.201 3.352-1.201.59 0 .99.105 1.201.316.253.21.38.484.38.822 0 .505-.17 1.053-.506 1.643-.296.59-.76 1.16-1.391 1.707-.633.506-1.433.949-2.403 1.328-.97.337-2.128.506-3.477.506-.211.38-.443.99-.696 1.833a8.14 8.14 0 0 0-.379 2.466c0 1.728.78 2.592 2.34 2.592.969 0 1.96-.231 2.97-.695a18.002 18.002 0 0 0 3.036-1.707 23.503 23.503 0 0 0 2.655-2.276c.843-.843 1.538-1.623 2.086-2.34.085-.084.169-.105.253-.063.127.042.19.127.19.253Zm-6.639-4.931c0-.548-.274-.822-.822-.822-.421 0-.864.168-1.327.505-.422.296-.843.696-1.265 1.202a16.514 16.514 0 0 0-1.201 1.644c-.38.59-.695 1.159-.948 1.707.084.042.231.084.442.126h.506c1.222 0 2.297-.421 3.225-1.264.927-.886 1.39-1.918 1.39-3.098Z" fill="#000"/><path d="M113.7 30.999c-.042.8-.358 1.686-.948 2.655a24.013 24.013 0 0 1-2.149 2.845 35.811 35.811 0 0 1-2.846 2.782 37.757 37.757 0 0 1-3.034 2.403 30.915 30.915 0 0 1-2.719 1.707c-.843.421-1.496.632-1.96.632l-1.011-1.012c0-.168.084-.231.252-.19.97-.083 1.771-.442 2.403-1.074.632-.674 1.117-1.981 1.454-3.92.084-.463.169-.97.253-1.517.084-.59.169-1.138.253-1.644.084-.548.168-1.033.253-1.454.126-.422.232-.717.316-.885.168-.506.211-.801.126-.885-.042-.127-.231-.19-.569-.19l-1.833.316c-.38-.169-.358-.316.063-.443.843-.126 1.834-.274 2.972-.442 1.138-.169 2.044-.358 2.718-.57.127.085.148.17.063.254-.168.126-.358.274-.569.442-.21.169-.379.4-.505.696a10.003 10.003 0 0 0-.569 1.707c-.127.674-.253 1.327-.38 1.96a61.766 61.766 0 0 1-.379 1.77c-.084.506-.169.864-.253 1.075-.253.716-.674 1.412-1.264 2.086a13.358 13.358 0 0 1-1.771 1.707c-.168.295-.147.38.063.253a17.49 17.49 0 0 0 3.478-1.644 15.862 15.862 0 0 0 3.035-2.465 12.67 12.67 0 0 0 2.149-3.225c.59-1.18.949-2.466 1.075-3.857.126-1.643-.126-2.718-.759-3.224-.084-.042-.105-.084-.063-.126.042-.042.19-.042.443 0a2.344 2.344 0 0 1 1.77 1.074c.421.633.569 1.433.442 2.403Z" fill="#000"/></svg><svg fill="none" viewBox="0 0 22 16" id="uk" xmlns="http://www.w3.org/2000/svg"><g clip-path="url(#da)"><path fill="#43CCF5" d="M.334 0h21.333v8H.334z"/><path fill="#FCDB54" d="M.334 8h21.333v8H.334z"/></g><defs><clipPath id="da"><path fill="#fff" transform="translate(.333)" d="M0 0h21.333v16H0z"/></clipPath></defs></svg><svg fill="none" viewBox="0 0 152 35" id="wordpres-logo" xmlns="http://www.w3.org/2000/svg"><path d="M88.122 14.33h-5.966v.627c1.866 0 2.166.396 2.166 2.743v4.23c0 2.346-.3 2.776-2.166 2.776-1.432-.198-2.399-.959-3.732-2.412l-1.533-1.653c2.066-.364 3.166-1.652 3.166-3.106 0-1.818-1.566-3.206-4.499-3.206h-5.865v.628c1.866 0 2.166.396 2.166 2.743v4.23c0 2.346-.3 2.776-2.166 2.776v.628h6.632v-.628c-1.866 0-2.166-.43-2.166-2.776v-1.19h.566l3.7 4.594h9.697c4.765 0 6.831-2.511 6.831-5.52 0-3.006-2.066-5.485-6.831-5.485Zm-13.963 5.385v-4.394h1.366c1.5 0 2.166 1.024 2.166 2.214 0 1.157-.667 2.18-2.166 2.18h-1.366Zm14.063 4.594h-.234c-1.199 0-1.366-.297-1.366-1.817V15.32h1.6c3.466 0 4.098 2.511 4.098 4.461 0 2.016-.633 4.527-4.098 4.527ZM51.131 20.939l2.3-6.742c.666-1.95.366-2.511-1.767-2.511v-.661h6.265v.66c-2.099 0-2.599.496-3.432 2.909l-3.8 11.302h-.432l-3.4-10.344L43.4 25.896h-.433l-3.7-11.302c-.8-2.412-1.332-2.908-3.265-2.908v-.661H43.4v.66c-1.966 0-2.5.463-1.8 2.512l2.233 6.742 3.366-9.914h.633l3.299 9.914ZM62.46 25.765c-3.666 0-6.665-2.677-6.665-5.949 0-3.238 3-5.915 6.664-5.915 3.666 0 6.665 2.677 6.665 5.915 0 3.272-2.999 5.949-6.664 5.949Zm0-10.84c-3.066 0-4.133 2.743-4.133 4.891 0 2.182 1.067 4.891 4.133 4.891 3.099 0 4.165-2.71 4.165-4.89 0-2.149-1.066-4.891-4.166-4.891ZM103.184 24.673v.661h-7.632v-.66c2.233 0 2.633-.562 2.633-3.867v-5.288c0-3.305-.4-3.833-2.633-3.833v-.661h6.898c3.433 0 5.333 1.751 5.333 4.098 0 2.28-1.9 4.065-5.333 4.065h-1.899v1.618c0 3.306.4 3.867 2.633 3.867Zm-.734-12.459h-1.899v5.75h1.899c1.867 0 2.733-1.288 2.733-2.841 0-1.586-.866-2.909-2.733-2.909ZM130.675 22.227l-.166.595c-.3 1.09-.667 1.487-3.033 1.487h-.467c-1.732 0-2.032-.396-2.032-2.742v-1.52c2.599 0 2.799.23 2.799 1.95h.633v-4.925h-.633c0 1.719-.2 1.95-2.799 1.95V15.32h1.832c2.367 0 2.733.396 3.033 1.487l.167.628h.533l-.233-3.107h-9.798v.628c1.866 0 2.166.396 2.166 2.743v4.23c0 2.146-.254 2.687-1.726 2.764-1.398-.212-2.358-.968-3.672-2.4l-1.533-1.653c2.067-.364 3.166-1.652 3.166-3.106 0-1.818-1.566-3.206-4.498-3.206h-5.865v.628c1.865 0 2.165.396 2.165 2.743v4.23c0 2.346-.299 2.776-2.165 2.776v.628h6.631v-.628c-1.866 0-2.166-.43-2.166-2.776v-1.19h.567l3.699 4.594h13.696l.2-3.106h-.501Zm-17.661-2.512v-4.394h1.366c1.5 0 2.166 1.024 2.166 2.214 0 1.157-.666 2.18-2.166 2.18h-1.366ZM137.437 25.764c-1.333 0-2.5-.694-2.999-1.123-.167.165-.467.66-.533 1.123h-.634v-4.56h.667c.267 2.181 1.799 3.47 3.765 3.47 1.067 0 1.933-.595 1.933-1.586 0-.859-.766-1.52-2.132-2.148l-1.9-.892c-1.333-.628-2.333-1.72-2.333-3.173 0-1.586 1.5-2.94 3.566-2.94 1.1 0 2.033.396 2.6.858.166-.132.333-.495.433-.892h.633v3.9h-.7c-.233-1.554-1.1-2.843-2.866-2.843-.933 0-1.8.53-1.8 1.356 0 .859.7 1.321 2.3 2.048l1.833.893c1.599.76 2.232 1.983 2.232 2.974 0 2.082-1.833 3.535-4.065 3.535ZM147.703 25.764c-1.334 0-2.5-.694-3-1.123-.166.165-.466.66-.532 1.123h-.634v-4.56h.667c.266 2.181 1.799 3.47 3.765 3.47 1.067 0 1.933-.595 1.933-1.586 0-.859-.766-1.52-2.133-2.148l-1.899-.892c-1.333-.628-2.333-1.72-2.333-3.173 0-1.586 1.5-2.94 3.566-2.94 1.1 0 2.032.396 2.599.858.167-.132.333-.495.433-.892h.633v3.9h-.699c-.234-1.554-1.1-2.843-2.866-2.843-.933 0-1.8.53-1.8 1.356 0 .859.7 1.321 2.3 2.048l1.832.893c1.6.76 2.233 1.983 2.233 2.974 0 2.082-1.833 3.535-4.065 3.535ZM2.677 17.958c0 5.789 3.393 10.791 8.312 13.162L3.954 12.006a14.466 14.466 0 0 0-1.277 5.952ZM27.381 17.22c0-1.808-.654-3.06-1.216-4.034-.747-1.205-1.448-2.225-1.448-3.43 0-1.344 1.028-2.595 2.476-2.595.066 0 .128.008.191.011a14.762 14.762 0 0 0-9.959-3.839A14.762 14.762 0 0 0 5.104 9.925c.346.01.672.018.95.018 1.542 0 3.93-.186 3.93-.186.795-.046.888 1.111.094 1.205 0 0-.799.093-1.688.14l5.37 15.84 3.228-9.598L14.69 11.1c-.794-.047-1.547-.14-1.547-.14-.795-.046-.701-1.25.093-1.204 0 0 2.436.185 3.885.185 1.542 0 3.93-.185 3.93-.185.796-.047.89 1.111.095 1.204 0 0-.8.093-1.688.14l5.33 15.72 1.47-4.874c.638-2.023 1.123-3.476 1.123-4.728Z" fill="#fff"/><path d="m17.68 19.237-4.424 12.75a14.864 14.864 0 0 0 9.063-.233 1.278 1.278 0 0 1-.105-.202L17.68 19.237ZM30.364 10.943c.064.466.1.966.1 1.504 0 1.484-.28 3.152-1.121 5.238L24.838 30.6c4.384-2.536 7.333-7.246 7.333-12.642a14.45 14.45 0 0 0-1.806-7.016Z" fill="#fff"/><path d="M17.424.91C7.944.91.232 8.558.232 17.958c0 9.401 7.713 17.048 17.192 17.048s17.192-7.647 17.192-17.048c0-9.4-7.713-17.048-17.192-17.048Zm0 33.315c-9.045 0-16.404-7.298-16.404-16.267 0-8.97 7.359-16.266 16.404-16.266 9.044 0 16.402 7.297 16.402 16.266 0 8.97-7.358 16.267-16.402 16.267Z" fill="#fff"/></svg></svg>