<?xml version="1.0" encoding="utf-8"?><svg viewBox="0 0 22 16" xmlns="http://www.w3.org/2000/svg" xmlns:xlink="http://www.w3.org/1999/xlink"><style>:root>svg{display:none}:root>svg:target{display:block}</style><svg fill="none" viewBox="0 0 22 16" id="en" xmlns="http://www.w3.org/2000/svg"><path fill="#EEF3F8" d="M.334 0h21.333v14.667H.334z"/><path fill="#41479B" d="M.334 0h12v9.333h-12z"/><path fill="#DC251C" d="M12.334 0h9.333v1.333h-9.333zM12.334 2.667h9.333V4h-9.333zM12.334 5.333h9.333v1.333h-9.333zM12.334 8h9.333v1.333h-9.333zM.334 10.667h21.333V12H.334zM.334 13.333h21.333v1.333H.334z"/><path fill="#C5D0EC" d="M1.667 1.334H3v1.333H1.667zM4.334 1.334h1.333v1.333H4.334zM7.001 1.334h1.333v1.333H7.001zM9.667 1.334H11v1.333H9.667zM1.667 4H3v1.333H1.667zM4.334 4h1.333v1.333H4.334zM7.001 4h1.333v1.333H7.001zM3.001 5.334h1.333v1.333H3.001zM5.667 5.334H7v1.333H5.667zM8.334 5.334h1.333v1.333H8.334zM3.001 2.667h1.333V4H3.001zM5.667 2.667H7V4H5.667zM8.334 2.667h1.333V4H8.334zM9.667 4H11v1.333H9.667zM1.667 6.667H3V8H1.667zM4.334 6.667h1.333V8H4.334zM7.001 6.667h1.333V8H7.001zM9.667 6.667H11V8H9.667z"/></svg><svg fill="none" viewBox="0 0 22 16" id="uk" xmlns="http://www.w3.org/2000/svg"><g clip-path="url(#ba)"><path fill="#43CCF5" d="M.334 0h21.333v8H.334z"/><path fill="#FCDB54" d="M.334 8h21.333v8H.334z"/></g><defs><clipPath id="ba"><path fill="#fff" transform="translate(.333)" d="M0 0h21.333v16H0z"/></clipPath></defs></svg></svg>