<svg width="156" height="36" viewBox="0 0 156 36" fill="none" xmlns="http://www.w3.org/2000/svg">
<path fill-rule="evenodd" clip-rule="evenodd" d="M34.0257 8.46158C34.0382 8.50783 34.0446 8.55551 34.0447 8.60341V16.0491C34.0447 16.1447 34.0195 16.2385 33.9716 16.3212C33.9237 16.4039 33.8548 16.4725 33.7719 16.52L27.5226 20.118V27.2495C27.5226 27.4436 27.4194 27.6227 27.2511 27.7204L14.2063 35.2299C14.1764 35.2469 14.1438 35.2577 14.1113 35.2693C14.0991 35.2733 14.0875 35.2808 14.0746 35.2842C13.9834 35.3082 13.8876 35.3082 13.7964 35.2842C13.7815 35.2801 13.7679 35.272 13.7536 35.2666C13.7238 35.2557 13.6926 35.2462 13.6641 35.2299L0.621921 27.7204C0.539068 27.6729 0.470226 27.6043 0.422332 27.5216C0.374439 27.4389 0.349187 27.345 0.349121 27.2495L0.349121 4.91247C0.349121 4.86361 0.355907 4.81611 0.368122 4.76996C0.372194 4.75435 0.381694 4.7401 0.387123 4.72449C0.397302 4.69599 0.406803 4.66681 0.421732 4.64035C0.431911 4.6227 0.446841 4.60845 0.459055 4.59216C0.474663 4.57045 0.488914 4.54806 0.507237 4.52905C0.522844 4.51345 0.543203 4.50191 0.560846 4.48834C0.580526 4.47205 0.59817 4.45441 0.620564 4.44151L7.14266 0.686781C7.22523 0.639266 7.31883 0.614258 7.4141 0.614258C7.50937 0.614258 7.60297 0.639266 7.68554 0.686781L14.207 4.44151H14.2083C14.23 4.45509 14.2484 4.47205 14.268 4.48766C14.2857 4.50123 14.3054 4.51345 14.321 4.52838C14.34 4.54806 14.3535 4.57045 14.3698 4.59216C14.3814 4.60845 14.397 4.6227 14.4065 4.64035C14.4221 4.66749 14.4309 4.69599 14.4418 4.72449C14.4472 4.7401 14.4567 4.75435 14.4608 4.77064C14.4732 4.81688 14.4796 4.86456 14.4798 4.91247V18.8639L19.914 15.7349V8.60273C19.914 8.55523 19.9208 8.50705 19.933 8.46158C19.9378 8.4453 19.9466 8.43105 19.952 8.41544C19.9629 8.38694 19.9724 8.35776 19.9873 8.33129C19.9975 8.31365 20.0124 8.2994 20.024 8.28311C20.0403 8.26139 20.0538 8.239 20.0728 8.22C20.0884 8.20439 20.1081 8.19285 20.1258 8.17928C20.1461 8.16299 20.1638 8.14535 20.1855 8.13246L26.7083 4.37773C26.7908 4.33014 26.8844 4.3051 26.9797 4.3051C27.075 4.3051 27.1686 4.33014 27.2511 4.37773L33.7726 8.13246C33.7956 8.14603 33.8133 8.163 33.8336 8.1786C33.8506 8.19218 33.8703 8.20439 33.8859 8.21932C33.9049 8.239 33.9185 8.26139 33.9347 8.28311C33.947 8.2994 33.9619 8.31365 33.9714 8.33129C33.987 8.35776 33.9958 8.38694 34.0067 8.41544C34.0128 8.43105 34.0216 8.4453 34.0257 8.46158ZM32.9575 15.7349V9.54328L30.6754 10.8571L27.5226 12.6723V18.8639L32.9582 15.7349H32.9575ZM26.4361 26.9353V20.7396L23.3349 22.5108L14.4791 27.565V33.8191L26.4361 26.9353ZM1.43625 5.85234V26.9353L13.3919 33.8184V27.5657L7.14605 24.0309L7.14401 24.0295L7.1413 24.0281C7.12026 24.0159 7.10262 23.9983 7.08294 23.9834C7.06597 23.9698 7.04629 23.9589 7.03136 23.944L7.03001 23.942C7.01236 23.925 7.00015 23.904 6.98522 23.885C6.97165 23.8666 6.95536 23.851 6.9445 23.832L6.94382 23.83C6.93161 23.8096 6.92414 23.7852 6.91532 23.7621C6.9065 23.7418 6.89496 23.7228 6.88954 23.7011C6.88275 23.6753 6.88139 23.6474 6.87868 23.621C6.87596 23.6006 6.87053 23.5803 6.87053 23.5599V23.5586V8.9814L3.71841 7.16544L1.43625 5.85234ZM7.41478 1.78477L1.98117 4.91247L7.41342 8.04017L12.8463 4.91179L7.41342 1.78477H7.41478ZM10.2405 21.3042L13.3926 19.4896V5.85234L11.1105 7.16612L7.95766 8.9814V22.6187L10.2405 21.3042ZM26.9797 5.47571L21.5468 8.60341L26.9797 11.7311L32.4119 8.60273L26.9797 5.47571ZM26.4361 12.6723L23.2833 10.8571L21.0012 9.54328V15.7349L24.1533 17.5495L26.4361 18.8639V12.6723ZM13.9348 26.6252L21.9037 22.0758L25.8871 19.8025L20.4583 16.6768L14.2076 20.2755L8.51073 23.5552L13.9348 26.6252Z" fill="white"/>
<path fill-rule="evenodd" clip-rule="evenodd" d="M56.4486 5.40234V26.4579H64.0665V30.0905H52.3921V5.40234H56.4486ZM78.385 15.8771V13.6552H82.2295V30.0914H78.3859V27.8686C77.8678 28.6918 77.1342 29.3386 76.1813 29.8082C75.2293 30.2787 74.2709 30.5135 73.307 30.5135C72.0599 30.5135 70.9197 30.2851 69.8854 29.8265C68.8774 29.387 67.9708 28.7444 67.2222 27.9389C66.4804 27.1377 65.8948 26.2051 65.4954 25.1889C65.0792 24.1331 64.8692 23.0073 64.8769 21.8724C64.8769 20.7212 65.0825 19.6212 65.4945 18.5742C65.8914 17.5511 66.4775 16.6119 67.2222 15.8059C67.971 15.0009 68.8776 14.3586 69.8854 13.9192C70.9197 13.4606 72.0599 13.2322 73.307 13.2322C74.2709 13.2322 75.2293 13.467 76.1813 13.9375C77.1333 14.408 77.8669 15.054 78.385 15.8771ZM78.0323 23.8833C78.2691 23.2398 78.3888 22.559 78.3859 21.8733C78.3859 21.1671 78.2671 20.4974 78.0323 19.8633C77.8119 19.2528 77.477 18.69 77.0456 18.2051C76.6149 17.7295 76.0929 17.3454 75.5107 17.0758C74.9113 16.7944 74.2471 16.6528 73.5189 16.6528C72.7889 16.6528 72.1302 16.7944 71.5428 17.0758C70.9678 17.3487 70.4524 17.7325 70.0261 18.2051C69.5961 18.6875 69.2668 19.2509 69.0577 19.8624C68.8317 20.5083 68.718 21.1881 68.7215 21.8724C68.7215 22.5777 68.8329 23.2483 69.0568 23.8824C69.2797 24.5183 69.6031 25.0701 70.027 25.5406C70.4531 26.0134 70.9686 26.3972 71.5437 26.6699C72.1302 26.9522 72.7889 27.0929 73.518 27.0929C74.2471 27.0929 74.9113 26.9522 75.5107 26.6699C76.093 26.4005 76.6151 26.0164 77.0456 25.5406C77.477 25.0561 77.8119 24.4936 78.0323 23.8833ZM85.2628 30.0905V13.6552H95.7029V17.4385H89.1064V30.0924H85.2628V30.0905ZM109.634 15.8771V13.6552H113.479V30.0914H109.634V27.8686C109.117 28.6918 108.382 29.3386 107.429 29.8082C106.477 30.2787 105.52 30.5135 104.555 30.5135C103.309 30.5135 102.169 30.2851 101.134 29.8265C100.126 29.387 99.2198 28.7444 98.4712 27.9389C97.7291 27.1378 97.1432 26.2051 96.7435 25.1889C96.3275 24.133 96.1179 23.0072 96.1259 21.8724C96.1259 20.7212 96.3314 19.6212 96.7435 18.5742C97.1401 17.5512 97.7259 16.612 98.4703 15.8059C99.2194 15.0008 100.126 14.3585 101.134 13.9192C102.169 13.4606 103.309 13.2322 104.555 13.2322C105.519 13.2322 106.477 13.467 107.429 13.9375C108.382 14.408 109.117 15.054 109.634 15.8771ZM109.281 23.8833C109.518 23.2397 109.637 22.559 109.634 21.8733C109.634 21.1671 109.515 20.4974 109.281 19.8633C109.061 19.2528 108.726 18.69 108.295 18.2051C107.864 17.7295 107.342 17.3454 106.76 17.0758C106.16 16.7944 105.495 16.6528 104.767 16.6528C104.038 16.6528 103.379 16.7944 102.792 17.0758C102.217 17.3487 101.701 17.7325 101.275 18.2051C100.845 18.6874 100.515 19.2509 100.306 19.8624C100.08 20.5084 99.9667 21.1882 99.9704 21.8724C99.9704 22.5777 100.081 23.2483 100.306 23.8824C100.529 24.5183 100.852 25.0701 101.275 25.5406C101.701 26.0134 102.217 26.3972 102.792 26.6699C103.379 26.9522 104.038 27.0929 104.767 27.0929C105.495 27.0929 106.16 26.9522 106.76 26.6699C107.342 26.4005 107.864 26.0164 108.295 25.5406C108.726 25.0561 109.061 24.4936 109.281 23.8833ZM128.891 13.6552H132.784L126.476 30.0914H121.643L115.333 13.6552H119.227L124.059 26.2414L128.891 13.6552ZM141.17 13.2322C146.404 13.2322 149.974 17.8716 149.303 23.3013H136.55C136.55 24.7193 137.981 27.4602 141.381 27.4602C144.304 27.4602 146.264 24.8883 146.265 24.8865L148.863 26.8965C146.54 29.3752 144.639 30.5145 141.661 30.5145C136.341 30.5145 132.735 27.1486 132.735 21.8733C132.735 17.1014 136.463 13.2322 141.17 13.2322ZM136.56 20.4444H145.773C145.744 20.1283 145.245 16.2855 141.139 16.2855C137.032 16.2855 136.589 20.1283 136.56 20.4444ZM151.806 30.0905V5.40234H155.651V30.0905H151.806Z" fill="white"/>
</svg>
