<svg width="22" height="16" viewBox="0 0 22 16" fill="none" xmlns="http://www.w3.org/2000/svg">
<rect x="0.333984" width="21.3333" height="14.6667" fill="#EEF3F8"/>
<rect x="0.333984" width="12" height="9.33333" fill="#41479B"/>
<rect x="12.334" width="9.33333" height="1.33333" fill="#DC251C"/>
<rect x="12.334" y="2.66667" width="9.33333" height="1.33333" fill="#DC251C"/>
<rect x="12.334" y="5.33333" width="9.33333" height="1.33333" fill="#DC251C"/>
<rect x="12.334" y="8" width="9.33333" height="1.33333" fill="#DC251C"/>
<rect x="0.333984" y="10.6667" width="21.3333" height="1.33333" fill="#DC251C"/>
<rect x="0.333984" y="13.3333" width="21.3333" height="1.33333" fill="#DC251C"/>
<rect x="1.66732" y="1.33366" width="1.33333" height="1.33333" fill="#C5D0EC"/>
<rect x="4.33398" y="1.33366" width="1.33333" height="1.33333" fill="#C5D0EC"/>
<rect x="7.00065" y="1.33366" width="1.33333" height="1.33333" fill="#C5D0EC"/>
<rect x="9.66732" y="1.33366" width="1.33333" height="1.33333" fill="#C5D0EC"/>
<rect x="1.66732" y="4.00033" width="1.33333" height="1.33333" fill="#C5D0EC"/>
<rect x="4.33398" y="4.00033" width="1.33333" height="1.33333" fill="#C5D0EC"/>
<rect x="7.00065" y="4.00033" width="1.33333" height="1.33333" fill="#C5D0EC"/>
<rect x="3.00065" y="5.33366" width="1.33333" height="1.33333" fill="#C5D0EC"/>
<rect x="5.66732" y="5.33366" width="1.33333" height="1.33333" fill="#C5D0EC"/>
<rect x="8.33398" y="5.33366" width="1.33333" height="1.33333" fill="#C5D0EC"/>
<rect x="3.00065" y="2.66699" width="1.33333" height="1.33333" fill="#C5D0EC"/>
<rect x="5.66732" y="2.66699" width="1.33333" height="1.33333" fill="#C5D0EC"/>
<rect x="8.33398" y="2.66699" width="1.33333" height="1.33333" fill="#C5D0EC"/>
<rect x="9.66732" y="4.00033" width="1.33333" height="1.33333" fill="#C5D0EC"/>
<rect x="1.66732" y="6.66699" width="1.33333" height="1.33333" fill="#C5D0EC"/>
<rect x="4.33398" y="6.66699" width="1.33333" height="1.33333" fill="#C5D0EC"/>
<rect x="7.00065" y="6.66699" width="1.33333" height="1.33333" fill="#C5D0EC"/>
<rect x="9.66732" y="6.66699" width="1.33333" height="1.33333" fill="#C5D0EC"/>
</svg>
