<svg width="152" height="35" viewBox="0 0 152 35" fill="none" xmlns="http://www.w3.org/2000/svg">
<path d="M88.1217 14.3293H82.1565V14.9569C84.0223 14.9569 84.3223 15.3534 84.3223 17.6999V21.93C84.3223 24.2762 84.0226 24.7059 82.1565 24.7059C80.7239 24.5077 79.7571 23.7475 78.4242 22.2935L76.8914 20.6413C78.9573 20.2773 80.0568 18.9889 80.0568 17.5346C80.0568 15.7174 78.4909 14.3293 75.5582 14.3293H69.6931V14.9569C71.559 14.9569 71.859 15.3534 71.859 17.6999V21.93C71.859 24.2762 71.559 24.7059 69.6931 24.7059V25.3337H76.3245V24.7059C74.4587 24.7059 74.1587 24.2762 74.1587 21.93V20.7407H74.725L78.4242 25.3337H88.1217C92.8869 25.3337 94.9532 22.8225 94.9532 19.8148C94.9532 16.8077 92.8872 14.3293 88.1217 14.3293ZM74.159 19.7155V15.3209H75.525C77.0244 15.3209 77.6912 16.3452 77.6912 17.5349C77.6912 18.6917 77.0244 19.7157 75.525 19.7157L74.159 19.7155ZM88.2218 24.3093H87.9884C86.789 24.3093 86.6223 24.0121 86.6223 22.4919V15.3209C86.6223 15.3209 88.0886 15.3209 88.2218 15.3209C91.6875 15.3209 92.3204 17.8321 92.3204 19.782C92.3204 21.7976 91.6873 24.3093 88.2218 24.3093Z" fill="white"/>
<path d="M51.131 20.939L53.4304 14.1971C54.0972 12.2474 53.7972 11.6859 51.6644 11.6859V11.0247H57.9294V11.6859C55.83 11.6859 55.3302 12.1815 54.4971 14.5939L50.6977 25.8957H50.2647L46.8652 15.552L43.3998 25.8957H42.9665L39.2676 14.5939C38.4678 12.1815 37.9346 11.6859 36.0017 11.6859V11.0247H43.3998V11.6859C41.4335 11.6859 40.9 12.1484 41.6001 14.1971L43.8328 20.939L47.1986 11.0247H47.832L51.131 20.939Z" fill="white"/>
<path d="M62.4595 25.7646C58.794 25.7646 55.7947 23.0881 55.7947 19.816C55.7947 16.5777 58.7943 13.9006 62.4595 13.9006C66.1253 13.9006 69.1243 16.5777 69.1243 19.816C69.1243 23.0881 66.1253 25.7646 62.4595 25.7646ZM62.4595 14.9258C59.394 14.9258 58.3273 17.6683 58.3273 19.8163C58.3273 21.9978 59.394 24.7074 62.4595 24.7074C65.559 24.7074 66.6253 21.9978 66.6253 19.8163C66.6253 17.6683 65.559 14.9258 62.4595 14.9258Z" fill="white"/>
<path d="M103.184 24.6732V25.3341H95.5525V24.6732C97.7854 24.6732 98.1853 24.1116 98.1853 20.8065V15.5194C98.1853 12.2143 97.7854 11.6859 95.5525 11.6859V11.0247H102.45C105.883 11.0247 107.783 12.7762 107.783 15.1229C107.783 17.4031 105.883 19.1875 102.45 19.1875H100.551V20.8062C100.551 24.1116 100.951 24.6732 103.184 24.6732ZM102.45 12.2143H100.551V17.9647H102.45C104.317 17.9647 105.183 16.676 105.183 15.1229C105.183 13.5367 104.317 12.2143 102.45 12.2143Z" fill="white"/>
<path d="M130.675 22.2275L130.509 22.8222C130.209 23.9128 129.842 24.3093 127.476 24.3093H127.009C125.277 24.3093 124.977 23.9128 124.977 21.5666V20.0466C127.576 20.0466 127.776 20.2776 127.776 21.9963H128.409V17.0721H127.776C127.776 18.7905 127.576 19.0217 124.977 19.0217V15.3209H126.809C129.176 15.3209 129.542 15.7174 129.842 16.808L130.009 17.4355H130.542L130.309 14.3293H120.511V14.9569C122.377 14.9569 122.677 15.3534 122.677 17.6999V21.93C122.677 24.0764 122.423 24.6171 120.951 24.6942C119.553 24.4824 118.593 23.726 117.279 22.2935L115.746 20.6413C117.813 20.2773 118.912 18.9889 118.912 17.5346C118.912 15.7174 117.346 14.3293 114.414 14.3293H108.549V14.9569C110.414 14.9569 110.714 15.3534 110.714 17.6999V21.93C110.714 24.2762 110.415 24.7059 108.549 24.7059V25.3337H115.18V24.7059C113.314 24.7059 113.014 24.2762 113.014 21.93V20.7407H113.581L117.28 25.3337H130.976L131.176 22.2278L130.675 22.2275ZM113.014 19.7155V15.3209H114.38C115.88 15.3209 116.546 16.3452 116.546 17.5349C116.546 18.6917 115.88 19.7157 114.38 19.7157L113.014 19.7155Z" fill="white"/>
<path d="M137.437 25.7643C136.104 25.7643 134.937 25.0705 134.438 24.6406C134.271 24.8062 133.971 25.3018 133.905 25.7643H133.271V21.2044H133.938C134.205 23.3853 135.737 24.674 137.703 24.674C138.77 24.674 139.636 24.0793 139.636 23.0881C139.636 22.229 138.87 21.5678 137.504 20.94L135.604 20.0479C134.271 19.4195 133.271 18.3289 133.271 16.8752C133.271 15.289 134.771 13.9343 136.837 13.9343C137.937 13.9343 138.87 14.3309 139.437 14.7934C139.603 14.6612 139.77 14.2975 139.87 13.9006H140.503V17.8005H139.803C139.57 16.2471 138.703 14.9584 136.937 14.9584C136.004 14.9584 135.137 15.4871 135.137 16.3136C135.137 17.1727 135.837 17.6352 137.437 18.3623L139.27 19.2545C140.869 20.0145 141.502 21.2378 141.502 22.229C141.502 24.3106 139.669 25.7643 137.437 25.7643Z" fill="white"/>
<path d="M147.703 25.7643C146.369 25.7643 145.203 25.0705 144.703 24.6406C144.537 24.8062 144.237 25.3018 144.171 25.7643H143.537V21.2044H144.204C144.47 23.3853 146.003 24.674 147.969 24.674C149.036 24.674 149.902 24.0793 149.902 23.0881C149.902 22.229 149.136 21.5678 147.769 20.94L145.87 20.0479C144.537 19.4195 143.537 18.3289 143.537 16.8752C143.537 15.289 145.037 13.9343 147.103 13.9343C148.203 13.9343 149.135 14.3309 149.702 14.7934C149.869 14.6612 150.035 14.2975 150.135 13.9006H150.768V17.8005H150.069C149.835 16.2471 148.969 14.9584 147.203 14.9584C146.27 14.9584 145.403 15.4871 145.403 16.3136C145.403 17.1727 146.103 17.6352 147.703 18.3623L149.535 19.2545C151.135 20.0145 151.768 21.2378 151.768 22.229C151.768 24.3106 149.935 25.7643 147.703 25.7643Z" fill="white"/>
<path d="M2.67749 17.958C2.67749 23.7468 6.06995 28.7494 10.9893 31.1201L3.95433 12.0061C3.13603 13.8249 2.67749 15.8377 2.67749 17.958Z" fill="white"/>
<path d="M27.3814 17.2194C27.3814 15.412 26.7267 14.1603 26.1652 13.1861C25.4176 11.9814 24.7169 10.9612 24.7169 9.75652C24.7169 8.41215 25.7451 7.16072 27.1934 7.16072C27.2588 7.16072 27.3208 7.16879 27.3845 7.17241C24.7607 4.78866 21.2649 3.33325 17.4255 3.33325C12.2732 3.33325 7.74029 5.95465 5.10327 9.92516C5.44928 9.93546 5.77536 9.94269 6.05234 9.94269C7.59493 9.94269 9.98276 9.75708 9.98276 9.75708C10.7778 9.71061 10.8715 10.8685 10.0773 10.9618C10.0773 10.9618 9.27839 11.055 8.38937 11.1012L13.7599 26.9423L16.9874 17.3436L14.6897 11.1006C13.8955 11.0544 13.1431 10.9612 13.1431 10.9612C12.3484 10.915 12.4416 9.71005 13.2363 9.75652C13.2363 9.75652 15.6718 9.94214 17.121 9.94214C18.6633 9.94214 21.0514 9.75652 21.0514 9.75652C21.847 9.71005 21.9404 10.868 21.146 10.9612C21.146 10.9612 20.3453 11.0544 19.458 11.1006L24.7876 26.8218L26.2586 21.9472C26.8962 19.9243 27.3814 18.4714 27.3814 17.2194Z" fill="white"/>
<path d="M17.6805 19.2366L13.2556 31.9871C14.5768 32.3722 15.974 32.5829 17.4218 32.5829C19.1392 32.5829 20.7861 32.2885 22.3192 31.7539C22.2796 31.6913 22.2437 31.6248 22.2142 31.5524L17.6805 19.2366Z" fill="white"/>
<path d="M30.3645 10.9426C30.4279 11.4085 30.4639 11.9085 30.4639 12.4465C30.4639 13.9305 30.1844 15.5988 29.3425 17.6848L24.8376 30.6006C29.2221 28.0652 32.1712 23.3548 32.1712 17.9595C32.1715 15.4168 31.5165 13.0258 30.3645 10.9426Z" fill="white"/>
<path d="M17.4237 0.9104C7.94456 0.9104 0.232178 8.55783 0.232178 17.9579C0.232178 27.359 7.94456 35.0062 17.4237 35.0062C26.9026 35.0062 34.6161 27.359 34.6161 17.9579C34.6159 8.55783 26.9026 0.9104 17.4237 0.9104ZM17.4237 34.2248C8.37924 34.2248 1.02045 26.9274 1.02045 17.9579C1.02045 8.98889 8.37896 1.69209 17.4237 1.69209C26.468 1.69209 33.8262 8.98889 33.8262 17.9579C33.8262 26.9274 26.468 34.2248 17.4237 34.2248Z" fill="white"/>
</svg>
